Coordinates
version=1
nRows=10
nColumns=46
inDegrees=yes

Units are S.I. units (second, meters, Newtons, ...)
Angles are in degrees.

endheader
time	pelvis_tilt	pelvis_list	pelvis_rotation	pelvis_tx	pelvis_ty	pelvis_tz	bb_angle	bb_tx	bb_ty	bb_tz	hip_flexion_r	hip_adduction_r	hip_rotation_r	knee_angle_r	knee_angle_r_beta	ankle_angle_r	subtalar_angle_r	mtp_angle_r	crank_angle_r	hip_flexion_l	hip_adduction_l	hip_rotation_l	knee_angle_l	knee_angle_l_beta	ankle_angle_l	subtalar_angle_l	mtp_angle_l	crank_angle_l	lumbar_extension	lumbar_bending	lumbar_rotation	arm_flex_r	arm_add_r	arm_rot_r	elbow_flex_r	pro_sup_r	wrist_flex_r	wrist_dev_r	arm_flex_l	arm_add_l	arm_rot_l	elbow_flex_l	pro_sup_l	wrist_flex_l	wrist_dev_l
      5.00000000	    -16.88345147	      1.40895248	      7.81549668	      0.31852549	      1.13532397	     -0.28920442	      0.00000000	      0.50000000	      0.00000000	      0.25000000	     27.22401038	    -11.86914961	    -12.97323234	     34.75958073	      0.60666913	    -32.43885574	     -6.62003602	      0.00000000	      0.00000000	     80.93095325	      3.01298823	      2.72758987	    110.24622609	      1.92415963	      2.47612488	     -7.93391804	      0.00000000	      0.00000000	    -61.42674064	     -0.78970632	     -7.68838555	     55.81935015	    -16.08075264	     19.12056420	     60.73105954	     49.03489138	      0.00000000	      0.00000000	     60.74195064	    -20.04760324	     33.91554693	     69.00528833	     50.60078156	      0.00000000	      0.00000000
      5.00500000	    -16.93687979	      1.12566481	      7.90362099	      0.31781325	      1.13688036	     -0.29031376	      0.00000000	      0.50000000	      0.00000000	      0.25000000	     27.94402317	    -11.63312173	    -12.25067989	     36.39836054	      0.63527123	    -34.12828348	     -7.91985747	      0.00000000	      0.00000000	     80.46462425	      3.32702008	      2.95206461	    108.76383654	      1.89828705	      4.10916810	     -8.07851346	      0.00000000	      0.00000000	    -61.77612666	     -0.57226332	     -7.58420775	     56.02518113	    -16.00595885	     18.55951782	     61.05773116	     48.89921346	      0.00000000	      0.00000000	     60.83254988	    -19.83917202	     33.29983963	     69.54133685	     50.50918129	      0.00000000	      0.00000000
      5.01000000	    -16.98734397	      0.95365555	      7.90869913	      0.31710242	      1.13831033	     -0.29124210	      0.00000000	      0.50000000	      0.00000000	      0.25000000	     28.77546744	    -11.43971309	    -11.36606651	     38.22922725	      0.66722589	    -35.50500003	     -9.27522896	      0.00000000	      0.00000000	     79.78076932	      3.67680198	      3.23222071	    107.02492736	      1.86793736	      5.77184956	     -7.89249477	      0.00000000	      0.00000000	    -62.09570360	     -0.60565193	     -7.64125436	     56.38387738	    -15.96035524	     18.44299868	     60.85807320	     48.86397171	      0.00000000	      0.00000000	     61.11090021	    -19.95097493	     33.37156346	     69.97969875	     50.58038719	      0.00000000	      0.00000000
      5.01500000	    -17.18562774	      1.11904098	      7.98693392	      0.31640752	      1.14060454	     -0.29152255	      0.00000000	      0.50000000	      0.00000000	      0.25000000	     29.73425230	    -11.46385834	    -10.18728369	     40.00318222	      0.69818724	    -36.89102467	    -10.73009404	      0.00000000	      0.00000000	     78.17282893	      3.89384091	      1.43786733	    103.96427296	      1.81451887	      6.81860793	    -13.23093784	      0.00000000	      0.00000000	    -62.48498499	     -0.80679741	     -8.00471092	     56.69995941	    -15.76092320	     18.14122708	     60.75122658	     48.82965318	      0.00000000	      0.00000000	     61.53387169	    -20.15822060	     33.37033729	     70.51433088	     50.65619439	      0.00000000	      0.00000000
      5.02000000	    -17.20160004	      0.88572093	      7.93469027	      0.31577104	      1.14115627	     -0.29268462	      0.00000000	      0.50000000	      0.00000000	      0.25000000	     30.72288304	    -11.18265914	     -9.22432562	     42.29526449	      0.73819162	    -37.50256681	    -11.59088706	      0.00000000	      0.00000000	     77.52140069	      4.21790199	      2.09645597	    102.26221514	      1.78481235	      8.06636605	    -12.52653970	      0.00000000	      0.00000000	    -62.67934066	     -0.71045274	     -7.97147254	     56.94794057	    -15.66258925	     17.90326599	     60.70300024	     48.80872565	      0.00000000	      0.00000000	     61.62544379	    -20.29839038	     33.31649718	     70.95175776	     50.71597118	      0.00000000	      0.00000000
      5.02500000	    -17.24427909	      0.66268094	      7.84447890	      0.31528352	      1.14192749	     -0.29335049	      0.00000000	      0.50000000	      0.00000000	      0.25000000	     31.74406092	    -10.78174767	     -8.16303131	     44.60542286	      0.77851149	    -37.88337063	    -12.50066884	      0.00000000	      0.00000000	     76.53669120	      4.33466740	      2.26028641	    100.06143317	      1.74640146	      9.18382800	    -12.93021391	      0.00000000	      0.00000000	    -62.99595442	     -0.68626487	     -7.85972531	     57.26634668	    -15.65861178	     17.69599740	     60.72432829	     48.79621075	      0.00000000	      0.00000000	     61.77435458	    -20.35043890	     33.18301177	     71.33507239	     50.75864271	      0.00000000	      0.00000000
      5.03000000	    -17.40007246	      0.55249109	      7.58317755	      0.31490920	      1.14217952	     -0.29382518	      0.00000000	      0.50000000	      0.00000000	      0.25000000	     33.01359526	    -10.41370902	     -6.94419045	     47.10374338	      0.82211541	    -38.20784648	    -13.45797723	      0.00000000	      0.00000000	     75.69569800	      4.34965402	      2.47839819	     97.92340118	      1.70908577	      9.99697005	    -12.87715258	      0.00000000	      0.00000000	    -63.09708227	     -0.89579600	     -7.87544746	     57.31658412	    -15.55423005	     17.44607719	     60.80351378	     48.80127217	      0.00000000	      0.00000000	     61.74166293	    -20.49111653	     32.97222216	     71.96196852	     50.83259613	      0.00000000	      0.00000000
      5.03500000	    -17.58239048	      0.31683601	      7.34815233	      0.31459063	      1.14204391	     -0.29436644	      0.00000000	      0.50000000	      0.00000000	      0.25000000	     34.32792407	     -9.93600226	     -5.87058948	     49.66982300	      0.86690195	    -38.34183036	    -14.22902297	      0.00000000	      0.00000000	     74.96001614	      4.33915176	      3.00231504	     95.88026141	      1.67342625	     10.69550751	    -12.33071149	      0.00000000	      0.00000000	    -63.11553877	     -0.96158095	     -7.73537108	     57.39882121	    -15.50623578	     17.24871251	     60.96538543	     48.82573106	      0.00000000	      0.00000000	     61.60111303	    -20.62021367	     32.69901895	     72.56750704	     50.89755799	      0.00000000	      0.00000000
      5.04000000	    -17.76094745	      0.06689605	      7.10273337	      0.31432267	      1.14172409	     -0.29484743	      0.00000000	      0.50000000	      0.00000000	      0.25000000	     35.66271939	     -9.42651935	     -4.85089919	     52.27655082	      0.91239793	    -38.48573267	    -14.76510584	      0.00000000	      0.00000000	     74.18778727	      4.30728306	      3.54315344	     93.79624118	      1.63705323	     11.11877893	    -11.85564463	      0.00000000	      0.00000000	    -63.08682177	     -0.99937983	     -7.55534576	     57.43830037	    -15.51662532	     17.14680994	     61.16140050	     48.86560204	      0.00000000	      0.00000000	     61.43086550	    -20.69952848	     32.38151928	     73.12394040	     50.95040491	      0.00000000	      0.00000000
      5.04500000	    -17.91267526	     -0.17424059	      6.91185784	      0.31415228	      1.14144256	     -0.29544350	      0.00000000	      0.50000000	      0.00000000	      0.25000000	     36.92306242	     -8.97582875	     -4.03977247	     54.80849471	      0.95658869	    -38.48454525	    -15.48275633	      0.00000000	      0.00000000	     73.28833097	      4.31174355	      4.02769926	     91.58499791	      1.59845976	     11.21326573	    -11.63868545	      0.00000000	      0.00000000	    -63.08817561	     -0.98496567	     -7.36544539	     57.55330241	    -15.60379832	     17.09359414	     61.35264911	     48.90274759	      0.00000000	      0.00000000	     61.29931196	    -20.72470079	     32.10536459	     73.56250419	     50.98982547	      0.00000000	      0.00000000
